<?xml version="1.0" encoding="UTF-8" standalone="no"?>
<!-- Created with Inkscape (http://www.inkscape.org/) -->
<svg
   xmlns:dc="http://purl.org/dc/elements/1.1/"
   xmlns:cc="http://creativecommons.org/ns#"
   xmlns:rdf="http://www.w3.org/1999/02/22-rdf-syntax-ns#"
   xmlns:svg="http://www.w3.org/2000/svg"
   xmlns="http://www.w3.org/2000/svg"
   xmlns:xlink="http://www.w3.org/1999/xlink"
   xmlns:sodipodi="http://sodipodi.sourceforge.net/DTD/sodipodi-0.dtd"
   xmlns:inkscape="http://www.inkscape.org/namespaces/inkscape"
   width="744.09448819"
   height="1052.3622047"
   id="svg2"
   sodipodi:version="0.32"
   inkscape:version="0.46"
   sodipodi:docname="boundary.svg"
   inkscape:output_extension="org.inkscape.output.svg.inkscape">
  <defs
     id="defs4">
    <inkscape:perspective
       sodipodi:type="inkscape:persp3d"
       inkscape:vp_x="0 : 526.18109 : 1"
       inkscape:vp_y="0 : 1000 : 0"
       inkscape:vp_z="744.09448 : 526.18109 : 1"
       inkscape:persp3d-origin="372.04724 : 350.78739 : 1"
       id="perspective10" />
    <inkscape:perspective
       id="perspective2515"
       inkscape:persp3d-origin="372.04724 : 350.78739 : 1"
       inkscape:vp_z="744.09448 : 526.18109 : 1"
       inkscape:vp_y="0 : 1000 : 0"
       inkscape:vp_x="0 : 526.18109 : 1"
       sodipodi:type="inkscape:persp3d" />
  </defs>
  <sodipodi:namedview
     id="base"
     pagecolor="#ffffff"
     bordercolor="#666666"
     borderopacity="1.0"
     gridtolerance="10000"
     guidetolerance="10"
     objecttolerance="10"
     inkscape:pageopacity="0.0"
     inkscape:pageshadow="2"
     inkscape:zoom="4.06"
     inkscape:cx="305.84016"
     inkscape:cy="533.17268"
     inkscape:document-units="px"
     inkscape:current-layer="layer1"
     showgrid="false"
     inkscape:window-width="1103"
     inkscape:window-height="689"
     inkscape:window-x="23"
     inkscape:window-y="23" />
  <metadata
     id="metadata7">
    <rdf:RDF>
      <cc:Work
         rdf:about="">
        <dc:format>image/svg+xml</dc:format>
        <dc:type
           rdf:resource="http://purl.org/dc/dcmitype/StillImage" />
      </cc:Work>
    </rdf:RDF>
  </metadata>
  <g
     inkscape:label="Layer 1"
     inkscape:groupmode="layer"
     id="layer1">
    <image
       y="243.86218"
       x="108"
       id="image2517"
       height="577"
       width="534"
       sodipodi:absref="C:\_integral\_bka\googleMapsGorissen\boundary\malaysia.png"
       xlink:href="malaysia.png"
       inkscape:export-filename="C:\_integral\_bka\googleMapsGorissen\boundary\malaysiaINK.png"
       inkscape:export-xdpi="90"
       inkscape:export-ydpi="90" />
    <path
       style="fill:none;fill-rule:evenodd;stroke:#f10000;stroke-width:1.2;stroke-linecap:butt;stroke-linejoin:miter;stroke-opacity:1;stroke-miterlimit:4;stroke-dasharray:none"
       d="M 145.37408,297.68929 L 147.25899,297.21806 L 148.20145,298.16051 L 149.14391,296.74683 L 150.08637,298.16051 L 151.02883,297.45367 L 152.91374,296.98244 L 154.79866,298.86736 L 158.09726,298.86736 L 159.03971,299.5742 L 161.16024,298.86736 L 161.16024,297.68929 L 162.80954,296.51121 L 163.98762,294.86191 L 165.16569,293.68384 L 166.57938,295.56876 L 167.52183,298.39613 L 169.40675,297.68929 L 171.29166,297.45367 L 172.23412,299.33859 L 173.41219,297.45367 L 173.17658,300.51666 L 172.70535,307.8207 L 175.53272,310.17685 L 176.71079,310.88369 L 173.41219,312.53299 L 171.99851,311.11931 L 169.40675,310.88369 L 169.17113,313.00422 L 171.29166,313.47545 L 169.87798,315.59598 L 167.99306,314.65352 L 167.75745,321.25072 L 166.10815,322.66441 L 164.22323,323.13564 L 163.98762,325.7274 L 159.98217,325.25617 L 157.62603,323.84248 L 159.27533,321.72195 L 157.39041,321.25072 L 157.1548,322.4288 L 154.56304,323.84248 L 153.14935,323.84248 L 151.97128,318.89458 L 152.44251,315.59598 L 153.38497,315.36037 L 154.32743,312.53299 L 149.85075,312.53299 L 149.85075,311.11931 L 152.91374,309.70562 L 152.44251,306.1714 L 146.08092,305.46456 L 145.84531,303.10842 L 145.13847,302.8728 L 145.37408,297.68929 z"
       id="path2521" />
    <path
       style="fill:none;fill-rule:evenodd;stroke:#e20000;stroke-width:1.2;stroke-linecap:butt;stroke-linejoin:miter;stroke-opacity:1;stroke-miterlimit:4;stroke-dasharray:none"
       d="M 192.73257,300.04543 L 195.55995,295.80437 L 196.97363,285.90857 L 199.09416,281.66751 L 197.44486,278.36891 L 199.09416,272.24293 L 200.97908,270.1224 L 204.51329,272.47855 L 209.93242,271.53609 L 210.16804,274.36346 L 213.93787,275.0703 L 213.93787,275.0703 L 212.7598,280.01821 L 211.58172,280.48944 L 216.0584,284.96611 L 218.65016,287.55787 L 217.23647,296.03998 L 213.70225,299.80982 L 212.28857,300.51666 L 208.75435,304.5221 L 206.16259,307.58509 L 205.69136,308.99878 L 203.80645,308.99878 L 201.68592,313.94668 L 200.03662,315.36037 L 197.20925,311.59053 L 195.79556,308.05632 L 193.91064,303.57965 L 193.67503,299.10297 L 196.73802,294.6263 L 196.73802,291.09208 L 196.73802,291.09208 L 196.73802,288.73594 L 197.44486,294.15507 L 194.38187,297.9249 L 192.73257,300.04543 z"
       id="path3293" />
    <path
       style="fill:none;fill-rule:evenodd;stroke:#00e000;stroke-width:1.2;stroke-linecap:butt;stroke-linejoin:miter;stroke-opacity:1;stroke-miterlimit:4;stroke-dasharray:none"
       d="M 219.12138,288.0291 L 222.18437,290.14963 L 226.89666,288.97155 L 229.95965,290.85647 L 233.72948,293.91946 L 236.79246,292.977 L 240.79791,295.33314 L 238.91299,298.16051 L 236.79246,299.5742 L 237.26369,301.93034 L 233.25825,303.81526 L 231.13772,306.40702 L 231.60895,310.17685 L 233.25825,312.53299 L 232.08018,316.06721 L 227.83912,317.24528 L 227.83912,319.83704 L 224.54052,320.07265 L 224.06929,321.01511 L 220.29946,321.25072 L 217.7077,320.07265 L 216.52963,318.65897 L 212.7598,318.42335 L 209.93242,319.36581 L 209.22558,320.7795 L 206.86944,323.13564 L 205.22014,321.01511 L 204.27768,318.89458 L 202.62838,318.42335 L 200.50785,315.12475 L 203.57083,308.99878 L 204.98452,308.76316 L 209.22558,303.57965 L 216.76524,296.2756 L 219.12138,288.0291 z"
       id="path3315" />
    <path
       style="fill:none;fill-rule:evenodd;stroke:#f10000;stroke-width:1.2;stroke-linecap:butt;stroke-linejoin:miter;stroke-opacity:1;stroke-miterlimit:4;stroke-dasharray:none"
       d="M 232.08018,316.30282 L 232.5514,318.89458 L 233.72948,318.89458 L 233.72948,320.30827 L 235.37878,322.66441 L 236.32123,321.25072 L 236.32123,320.54388 L 237.26369,319.36581 L 238.91299,318.42335 L 239.38422,321.25072 L 240.09107,323.13564 L 240.56229,325.02056 L 241.97598,326.19863 L 244.09651,327.61231 L 244.33212,329.96846 L 242.91844,330.43969 L 241.74037,329.49723 L 237.26369,330.43969 L 236.79246,331.14653 L 234.43632,329.73284 L 233.02263,333.03144 L 227.36789,333.26706 L 225.48297,337.03689 L 219.59261,337.50812 L 220.53507,339.15742 L 221.47753,341.51356 L 221.71314,344.10532 L 218.88577,343.39848 L 215.58717,344.34094 L 214.4091,339.86426 L 213.23102,338.45058 L 212.99541,336.80127 L 212.05295,334.68075 L 208.75435,331.85337 L 210.16804,330.20407 L 208.51874,328.79039 L 208.04751,326.43424 L 206.39821,322.90003 L 210.63927,319.1302 L 215.11594,318.42335 L 220.53507,321.48634 L 225.01174,320.7795 L 227.6035,319.83704 L 227.6035,317.71651 L 232.08018,316.30282 z"
       id="path3317" />
    <path
       style="fill:none;fill-rule:evenodd;stroke:#0000f2;stroke-width:1.2;stroke-linecap:butt;stroke-linejoin:miter;stroke-opacity:1;stroke-miterlimit:4;stroke-dasharray:none"
       d="M 241.26914,295.56876 L 244.56774,297.21806 L 246.68827,297.45367 L 249.04441,296.2756 L 251.87178,293.68384 L 253.99231,292.03454 L 255.64162,296.03998 L 255.87723,296.98244 L 257.99776,295.80437 L 261.06075,297.9249 L 262.94566,301.93034 L 262.94566,306.1714 L 264.12373,308.52755 L 265.30181,310.88369 L 263.6525,312.53299 L 265.30181,315.83159 L 266.00865,317.48089 L 266.00865,321.25072 L 266.47988,325.49178 L 266.00865,325.96301 L 262.71005,326.19863 L 261.06075,325.02056 L 260.3539,326.43424 L 262.0032,329.26161 L 260.11829,331.38214 L 259.17583,331.38214 L 259.41145,334.68075 L 258.46899,336.33005 L 255.17039,337.03689 L 255.17039,338.21496 L 253.7567,338.21496 L 253.28547,340.09988 L 253.28547,340.09988 L 254.69916,341.98479 L 253.28547,343.39848 L 252.34301,343.39848 L 252.34301,345.04778 L 250.4581,345.28339 L 249.04441,343.86971 L 250.22248,342.45602 L 249.04441,339.86426 L 246.92388,338.68619 L 245.5102,337.03689 L 245.5102,335.6232 L 244.33212,334.91636 L 244.80335,333.03144 L 245.27458,331.61776 L 244.09651,330.20407 L 243.62528,327.84793 L 240.32668,324.78494 L 238.91299,318.89458 L 236.55685,320.07265 L 234.90755,322.4288 L 233.49386,319.60142 L 233.49386,319.1302 L 232.78702,318.65897 L 231.84456,316.77405 L 233.25825,312.53299 L 231.84456,309.70562 L 231.13772,306.1714 L 234.20071,303.10842 L 237.26369,301.45912 L 236.79246,299.80982 L 238.91299,297.68929 L 241.26914,295.56876 z"
       id="path3319" />
    <path
       style="fill:none;fill-rule:evenodd;stroke:#e80000;stroke-width:1.2;stroke-linecap:butt;stroke-linejoin:miter;stroke-opacity:1;stroke-miterlimit:4;stroke-dasharray:none"
       d="M 266.24426,317.24528 L 267.89356,315.59598 L 270.01409,318.65897 L 273.78392,317.71651 L 276.37568,315.12475 L 277.55375,313.23984 L 279.67428,316.06721 L 282.03043,316.30282 L 283.2085,317.24528 L 284.62219,316.30282 L 289.33447,315.12475 L 291.455,317.71651 L 291.92623,320.54388 L 292.39746,323.13564 L 287.68517,324.78494 L 286.97833,325.49178 L 285.09341,327.61231 L 288.62763,328.31916 L 292.39746,330.20407 L 292.39746,331.61776 L 291.21939,332.56022 L 291.21939,334.44513 L 290.04132,336.09443 L 287.68517,336.33005 L 286.27149,337.03689 L 278.2606,337.03689 L 277.55375,337.97935 L 275.90445,337.2725 L 272.84147,339.39303 L 270.95655,340.33549 L 269.07164,341.27795 C 269.07164,341.27795 268.60041,340.09988 268.12918,341.04233 C 267.65795,341.98479 266.71549,343.16286 266.71549,343.16286 L 269.30725,346.22585 L 269.30725,348.34638 L 270.01409,349.76007 L 269.07164,351.8806 L 268.12918,353.05867 L 269.30725,354.70797 L 268.12918,356.59288 L 267.42233,357.77096 L 268.36479,362.01201 L 266.95111,363.19009 L 266.24426,363.89693 L 266.95111,365.78184 L 268.83602,367.90237 L 267.65795,369.55168 L 267.65795,370.96536 L 264.12373,369.31606 L 259.88267,368.84483 L 258.23337,369.78729 L 254.46354,369.08045 L 250.4581,371.6722 L 249.98687,372.61466 L 248.10195,371.90782 L 246.92388,370.96536 L 245.27458,363.19009 L 242.44721,361.06956 L 243.62528,358.4778 L 239.85545,357.29973 L 242.44721,354.00113 L 241.97598,351.40937 L 244.33212,348.58199 L 248.33757,344.81216 L 248.8088,343.63409 L 250.22248,345.75462 L 252.1074,345.28339 L 252.57863,343.63409 L 254.46354,342.22041 L 253.28547,339.62865 L 253.99231,338.45058 L 255.406,337.2725 L 258.94022,335.6232 L 259.41145,332.08899 L 261.53197,329.026 L 260.11829,326.90547 L 260.82513,325.25617 L 262.94566,325.96301 L 265.77303,325.96301 C 265.77303,325.96301 265.53742,321.01511 266.00865,319.36581 C 266.47988,317.71651 266.47988,316.77405 266.24426,317.24528 z"
       id="path3321" />
    <path
       style="fill:none;fill-rule:evenodd;stroke:#00f200;stroke-width:1.2;stroke-linecap:butt;stroke-linejoin:miter;stroke-opacity:1;stroke-miterlimit:4;stroke-dasharray:none"
       d="M 222.6556,344.57655 L 221.71314,341.27795 L 219.59261,337.74373 L 224.54052,337.50812 L 227.6035,333.03144 L 232.5514,333.26706 L 234.43632,329.73284 L 236.79246,331.38214 L 241.26914,329.73284 L 244.56774,330.91091 L 244.56774,333.73829 L 244.33212,335.15197 L 245.74581,337.50812 L 248.57318,339.62865 L 249.98687,342.22041 L 248.33757,344.57655 L 243.15405,349.28884 L 241.74037,350.93814 L 241.74037,353.76551 L 239.85545,357.53534 L 237.73492,356.35727 L 234.90755,354.94358 L 232.08018,354.23674 L 226.42543,354.47235 L 226.18982,352.11621 L 225.24736,351.40937 L 226.18982,350.93814 L 226.18982,349.05322 L 225.24736,347.40392 L 222.6556,344.57655 z"
       id="path3323" />
    <path
       style="fill:none;fill-rule:evenodd;stroke:#0000f3;stroke-width:1.2;stroke-linecap:butt;stroke-linejoin:miter;stroke-opacity:1;stroke-miterlimit:4;stroke-dasharray:none"
       d="M 215.58717,344.10532 L 218.17893,343.39848 L 222.89121,344.57655 L 226.42543,348.81761 L 226.42543,350.2313 L 224.77613,351.17375 L 226.42543,353.05867 L 226.42543,354.70797 L 228.07473,355.1792 L 227.6035,355.88604 L 225.9542,357.53534 L 224.77613,358.94903 L 224.06929,361.7764 L 222.41999,363.89693 L 221.24191,365.075 L 220.53507,365.31062 L 220.29946,368.13799 L 219.357,369.31606 L 216.29401,369.08045 L 216.76524,364.60377 L 217.47208,361.06956 L 216.52963,358.00657 L 216.52963,354.47235 L 212.7598,353.05867 L 216.0584,352.82305 L 215.82278,348.11077 L 215.58717,344.10532 z"
       id="path3325" />
    <path
       style="fill:none;fill-rule:evenodd;stroke:#ed0000;stroke-width:1.2;stroke-linecap:butt;stroke-linejoin:miter;stroke-opacity:1;stroke-miterlimit:4;stroke-dasharray:none"
       d="M 215.82278,369.08045 L 220.06384,369.08045 L 220.53507,366.01746 L 223.83367,361.7764 L 225.01174,358.00657 L 227.83912,354.94358 L 230.66649,354.00113 L 235.85001,355.41481 L 239.38422,356.35727 L 243.62528,358.24218 L 242.44721,360.83394 L 245.27458,363.4257 L 246.21704,368.84483 L 246.92388,371.43659 L 246.45265,376.62011 L 245.98143,379.21187 L 243.38967,379.91871 L 243.15405,381.33239 L 241.97598,381.56801 L 241.26914,384.86661 L 239.14861,386.51591 L 238.44176,386.04468 L 237.02808,387.45837 L 232.5514,384.86661 L 230.9021,385.10223 L 229.48842,383.45292 L 228.07473,384.631 L 222.89121,384.631 L 220.77069,384.15977 L 219.357,382.74608 L 214.88033,384.15977 L 214.4091,379.91871 L 214.17348,377.32695 L 212.99541,375.20642 L 214.88033,373.55712 L 217.23647,374.49958 L 219.357,375.91326 L 219.357,375.91326 C 219.357,375.91326 217.47208,378.03379 219.357,377.56256 C 221.24191,377.09134 221.24191,377.09134 221.24191,377.09134 L 221.47753,375.67765 L 220.06384,374.73519 L 218.17893,372.61466 L 215.58717,370.72975 L 215.82278,369.08045 z"
       id="path3327" />
    <path
       style="fill:none;fill-rule:evenodd;stroke:#00f600;stroke-width:1.2;stroke-linecap:butt;stroke-linejoin:miter;stroke-opacity:1;stroke-miterlimit:4;stroke-dasharray:none"
       d="M 290.74816,336.09443 L 290.98377,342.22041 L 291.92623,344.10532 L 290.74816,346.22585 L 289.8057,348.11077 L 288.62763,349.99568 L 283.91534,349.99568 L 282.26604,351.8806 L 281.5592,352.35182 L 281.08797,355.88604 L 280.14551,358.00657 L 280.38113,358.94903 L 278.96744,360.36271 L 278.96744,362.48324 L 274.962,363.89693 L 274.962,366.48869 L 277.31814,370.0229 L 277.31814,373.32151 L 276.14007,375.44203 L 276.14007,376.38449 L 274.49077,376.14888 L 274.962,377.56256 L 274.49077,378.74064 L 272.84147,379.68309 L 273.31269,382.03924 L 274.49077,382.74608 L 273.54831,384.15977 L 274.49077,385.33784 L 273.78392,386.75153 L 274.962,388.40083 L 272.84147,391.46381 L 269.07164,391.93504 L 267.18672,394.05557 L 266.47988,398.53225 L 264.59496,399.23909 L 261.76759,401.124 L 259.88267,399.4747 L 257.99776,399.94593 L 256.34846,400.18155 L 253.04986,398.06102 L 251.63617,395.70487 L 249.98687,394.29119 L 251.40056,391.46381 L 250.4581,389.34328 L 249.28003,387.9296 L 249.28003,386.51591 L 246.45265,385.57345 L 244.56774,384.631 L 241.26914,384.631 L 242.91844,381.09678 L 246.21704,378.74064 L 246.68827,373.32151 L 246.92388,370.72975 L 249.28003,372.37905 L 254.22793,369.55168 L 258.46899,370.0229 L 260.11829,368.84483 L 264.12373,369.55168 L 266.95111,370.96536 L 268.60041,367.90237 L 266.24426,365.075 L 266.24426,363.89693 L 267.89356,362.24763 L 266.95111,357.77096 L 268.60041,354.47235 L 268.12918,353.5299 L 269.54286,349.99568 L 269.07164,346.69708 L 266.95111,343.16286 L 268.12918,340.5711 L 269.77848,341.04233 L 276.14007,337.03689 L 277.31814,337.74373 L 279.43867,336.80127 L 286.74271,337.03689 L 290.74816,336.09443 z"
       id="path3329" />
    <path
       style="fill:none;fill-rule:evenodd;stroke:#0000ee;stroke-width:1.2;stroke-linecap:butt;stroke-linejoin:miter;stroke-opacity:1;stroke-miterlimit:4;stroke-dasharray:none"
       d="M 233.25825,386.04468 L 236.79246,387.45837 L 237.97054,385.80907 L 238.91299,386.75153 L 241.50475,384.15977 L 244.80335,384.86661 L 249.04441,386.51591 L 250.4581,389.34328 L 251.63617,391.2282 L 249.98687,394.76242 L 253.04986,397.8254 L 256.58407,400.18155 L 259.88267,399.4747 L 261.53197,401.124 L 267.42233,397.8254 L 266.47988,400.18155 L 266.24426,401.59523 L 264.59496,402.53769 L 265.53742,404.89383 L 261.76759,408.66366 L 257.52653,408.89928 L 255.64162,408.42805 L 253.04986,409.60612 L 252.34301,407.72121 L 249.98687,407.01436 L 248.57318,410.54858 L 246.68827,412.90472 L 245.74581,414.0828 L 245.03897,412.66911 L 243.8609,414.0828 L 243.62528,415.96771 L 240.09107,416.43894 L 240.09107,415.96771 L 238.20615,414.0828 L 234.43632,414.31841 L 233.49386,413.14034 L 233.02263,407.01436 L 232.08018,403.71576 L 233.72948,400.18155 L 232.31579,397.8254 L 233.25825,393.58434 L 233.25825,386.04468 z"
       id="path3331" />
    <path
       style="fill:none;fill-rule:evenodd;stroke:#e00000;stroke-width:1.2;stroke-linecap:butt;stroke-linejoin:miter;stroke-opacity:1;stroke-miterlimit:4;stroke-dasharray:none"
       d="M 233.96509,414.78964 L 237.97054,414.0828 L 240.32668,416.20332 L 242.91844,415.96771 L 244.56774,412.90472 L 245.98143,413.84718 L 248.8088,410.07735 L 249.98687,407.24998 L 252.1074,408.19244 L 253.28547,409.84174 L 255.406,408.42805 L 262.47443,407.72121 L 257.29092,410.54858 L 253.52109,411.72665 L 253.04986,413.84718 L 251.40056,415.02525 L 249.51564,415.96771 L 249.28003,417.3814 L 247.86634,419.97316 L 246.92388,420.68 L 246.21704,421.62246 L 245.27458,423.50737 L 244.09651,423.03614 L 243.38967,424.44983 L 242.21159,426.80597 L 240.09107,427.51282 L 238.20615,430.34019 L 235.37878,431.28265 L 234.43632,430.81142 L 233.49386,431.75387 L 232.08018,430.5758 L 229.48842,427.98404 L 232.08018,426.57036 L 234.43632,424.68544 L 233.96509,414.78964 z"
       id="path3333" />
    <path
       style="fill:none;fill-rule:evenodd;stroke:#00ee00;stroke-width:1.2;stroke-linecap:butt;stroke-linejoin:miter;stroke-opacity:1;stroke-miterlimit:4;stroke-dasharray:none"
       d="M 215.63877,384.08024 L 219.38326,382.75866 L 222.68722,384.74104 L 227.53304,384.74104 L 229.07489,383.63972 L 233.03965,385.62209 L 233.9207,391.1287 L 232.81938,395.97452 L 232.37885,397.73663 L 227.97357,397.2961 L 224.6696,395.31372 L 224.22907,397.2961 L 221.14537,397.73663 L 219.60352,400.82033 L 217.84141,401.48113 L 217.18062,400.15954 L 218.28194,396.85557 L 218.94273,390.68817 L 217.40088,387.60447 L 215.63877,384.08024 z"
       id="path3335" />
    <path
       style="fill:none;fill-rule:evenodd;stroke:#ee0000;stroke-width:1.2;stroke-linecap:butt;stroke-linejoin:miter;stroke-opacity:1;stroke-miterlimit:4;stroke-dasharray:none"
       d="M 217.40088,401.70139 L 220.26432,400.82033 L 221.36564,397.51637 L 224.00881,397.2961 L 224.44934,395.31372 L 227.31278,396.85557 L 232.37885,397.73663 L 233.9207,400.3798 L 232.81938,401.92165 L 231.93833,403.68377 L 233.25991,406.76747 L 233.03965,410.73223 L 230.39648,411.61328 L 226.65198,411.61328 L 224.00881,412.49434 L 221.80617,413.15513 L 221.14537,410.51196 L 220.26432,406.5472 L 218.72247,404.78509 L 217.62115,403.68377 L 217.40088,401.70139 z"
       id="path3337" />
    <path
       style="fill:none;fill-rule:evenodd;stroke:#00e600;stroke-width:1.2;stroke-linecap:butt;stroke-linejoin:miter;stroke-opacity:1;stroke-miterlimit:4;stroke-dasharray:none"
       d="M 221.36564,413.59566 L 226.87225,411.61328 L 230.837,411.39302 L 233.03965,410.51196 L 234.14097,414.47672 L 233.9207,419.76306 L 234.80176,424.60888 L 231.4978,426.59126 L 229.07489,427.91284 L 222.68722,427.25205 L 222.02643,428.13311 L 219.60352,428.13311 L 220.48458,425.26967 L 221.5859,424.16835 L 221.80617,421.08465 L 223.34802,419.32254 L 221.80617,417.56042 L 221.36564,413.59566 z"
       id="path3339" />
    <path
       style="fill:none;fill-rule:evenodd;stroke:#ed0000;stroke-width:1.2;stroke-linecap:butt;stroke-linejoin:miter;stroke-opacity:1;stroke-miterlimit:4;stroke-dasharray:none"
       d="M 204.18502,394.43267 L 205.28634,393.11108 L 205.72687,392.23002 L 207.92952,392.45029 L 208.59031,393.55161 L 211.01322,394.43267 L 211.89427,396.63531 L 213.65639,398.61769 L 215.19824,399.27848 L 212.55507,401.26086 L 212.3348,402.80271 L 211.45374,405.00535 L 213.21586,407.42826 L 211.67401,409.63091 L 209.03084,406.76747 L 206.82819,405.22562 L 205.50661,402.58245 L 203.96476,401.70139 L 205.50661,399.49875 L 204.62555,398.17716 L 204.18502,394.43267 z"
       id="path3341" />
    <path
       style="fill:none;fill-rule:evenodd;stroke:#00e700;stroke-width:1.2;stroke-linecap:butt;stroke-linejoin:miter;stroke-opacity:1;stroke-miterlimit:4;stroke-dasharray:none"
       d="M 203.52423,394.2124 L 204.40529,396.19478 L 204.62555,398.83795 L 205.50661,399.71901 L 204.18502,401.70139 L 206.38767,404.1243 L 208.59031,406.32694 L 210.57269,409.19038 L 209.47137,412.05381 L 209.47137,413.3754 L 208.14978,415.79831 L 207.70925,413.81593 L 206.1674,412.05381 L 203.30396,411.17276 L 201.54185,412.49434 L 199.11894,413.81593 L 198.45815,411.83355 L 199.77974,410.07143 L 200.22026,408.08905 L 199.77974,406.98773 L 199.33921,400.15954 L 200.66079,398.83795 L 199.11894,398.17716 L 198.45815,397.51637 L 198.23789,395.75425 L 198.89868,394.65293 L 196.69604,393.11108 L 198.45815,393.33135 L 199.11894,392.23002 L 201.76211,393.77187 L 203.52423,394.2124 z"
       id="path3343" />
    <path
       style="fill:none;fill-rule:evenodd;stroke:#ed0000;stroke-width:1.2;stroke-linecap:butt;stroke-linejoin:miter;stroke-opacity:1;stroke-miterlimit:4;stroke-dasharray:none"
       d="M 279.07489,362.93487 L 281.71806,364.25646 L 282.81938,366.67936 L 283.9207,367.34016 L 285.90308,366.89963 L 286.78414,368.44148 L 288.76652,369.98333 L 289.86784,372.18597 L 289.86784,372.18597 L 291.18943,373.94809 L 291.85022,375.93046 L 292.95154,379.89522 L 295.15419,378.7939 L 297.13656,376.59126 L 299.55947,376.59126 L 301.32159,375.04941 L 301.76211,373.28729 L 304.18502,371.96571 L 304.62555,370.42386 L 305.72687,368.44148 L 304.40529,366.4591 L 305.50661,365.13751 L 305.72687,362.93487 L 308.37004,359.63091 L 311.01322,360.73223 L 315.19824,360.07143 L 314.53744,359.19038 L 316.74009,359.19038 L 317.40088,357.86879 L 317.84141,356.32694 L 318.72247,354.56483 L 323.12775,354.78509 L 325.55066,355.22562 L 328.63436,354.1243 L 330.17621,351.70139 L 333.03965,350.15954 L 336.34361,349.71901 L 338.32599,348.61769 L 339.86784,350.82033 L 341.62996,350.60007 L 342.07048,354.1243 L 346.03524,354.78509 L 346.9163,355.88641 L 345.37445,356.5472 L 345.37445,359.41064 L 346.47577,362.05381 L 347.57709,363.59566 L 348.23789,364.25646 L 348.89868,367.34016 L 348.23789,370.64412 L 348.45815,371.96571 L 346.47577,374.16835 L 345.81498,375.7102 L 345.15419,379.01416 L 344.71366,379.45469 L 347.35683,382.09787 L 347.35683,384.9613 L 346.47577,387.16394 L 345.37445,387.60447 L 345.37445,389.14632 L 345.37445,390.24765 L 349.77974,390.90844 L 353.0837,390.90844 C 353.0837,390.90844 354.40529,390.02738 354.40529,392.23002 C 354.40529,394.43267 352.64317,396.41505 352.64317,396.41505 L 353.74449,399.05822 L 353.30396,401.0406 L 352.64317,401.70139 L 354.18502,403.24324 L 353.52423,404.78509 L 351.98238,406.5472 C 351.98238,406.5472 351.32159,406.32694 349.77974,407.64853 C 348.23789,408.97011 344.05286,407.86879 344.05286,407.86879 L 342.07048,405.44588 L 340.30837,406.76747 L 339.20705,405.66615 L 337.00441,408.52958 L 336.56388,410.51196 L 336.34361,412.49434 L 335.46256,413.59566 L 334.80176,413.3754 L 334.14097,414.47672 L 331.71806,412.93487 L 330.837,417.11989 L 329.95595,421.08465 L 329.51542,422.84676 L 328.19383,423.06703 L 328.4141,425.26967 L 327.31278,427.25205 L 327.7533,430.11549 L 328.4141,431.43707 L 326.65198,433.19919 L 325.77093,433.63972 L 325.77093,438.045 L 324.44934,438.48553 L 324.22907,440.90844 L 321.80617,441.7895 L 320.48458,442.00976 L 319.60352,441.34897 L 318.28194,442.89082 L 315.85903,443.11108 L 315.63877,441.1287 L 316.74009,439.36659 L 314.97797,437.60447 L 314.53744,435.62209 L 312.77533,434.9613 L 311.45374,436.06262 L 309.91189,435.40183 L 309.03084,434.52077 L 306.60793,435.62209 L 305.06608,433.63972 L 300.66079,434.08024 L 298.89868,435.40183 L 296.47577,434.52077 L 295.59471,432.97892 L 293.61233,434.52077 L 291.85022,433.19919 L 287.88546,433.63972 L 287.44493,436.06262 L 285.24229,438.26527 L 284.14097,440.02738 L 282.81938,441.56923 L 282.15859,443.11108 L 280.39648,443.77187 L 278.4141,442.45029 L 276.21145,442.23002 L 275.77093,443.11108 L 271.5859,441.7895 L 268.72247,442.45029 L 266.51982,443.33135 L 266.51982,441.34897 L 266.51982,441.34897 L 268.94273,438.92606 L 267.84141,437.16394 L 268.72247,435.18157 L 271.14537,432.97892 L 271.80617,430.99654 L 272.02643,425.93046 L 272.02643,425.93046 L 273.56828,424.38861 L 272.02643,422.6265 L 268.94273,421.30491 L 269.60352,419.98333 L 272.46696,416.23883 L 274.00881,416.23883 L 274.44934,414.91725 L 275.3304,414.47672 L 274.44934,413.3754 L 274.22907,410.95249 L 273.34802,410.07143 L 273.34802,408.74985 L 271.80617,407.64853 L 273.34802,405.88641 L 272.2467,404.56483 L 272.2467,403.68377 L 271.14537,402.58245 L 270.92511,399.93928 C 270.92511,399.93928 271.36564,400.60007 270.26432,399.27848 C 269.163,397.9569 267.62115,399.05822 267.62115,399.05822 L 267.40088,397.73663 L 266.51982,397.9569 L 267.40088,393.11108 L 269.163,391.34897 L 272.46696,391.56923 L 274.88987,388.70579 L 273.78855,386.94368 L 274.44934,385.62209 L 273.56828,384.74104 L 274.44934,382.75866 L 273.12775,381.65734 L 272.68722,380.11549 L 274.6696,378.35337 L 274.44934,376.15073 L 276.21145,376.15073 L 277.09251,373.50756 L 277.53304,370.64412 L 275.11013,367.56042 L 274.88987,365.13751 L 275.55066,363.81593 L 279.07489,362.93487 z"
       id="path3345" />
    <path
       style="fill:none;fill-rule:evenodd;stroke:#00f300;stroke-width:1.2;stroke-linecap:butt;stroke-linejoin:miter;stroke-opacity:1;stroke-miterlimit:4;stroke-dasharray:none"
       d="M 218.94273,428.7939 L 220.48458,428.57364 L 222.02643,428.13311 L 222.68722,427.03179 L 229.95595,427.91284 L 233.48018,431.65734 L 234.14097,430.55602 L 235.90308,430.99654 L 238.76652,429.45469 L 241.18943,427.03179 L 249.77974,427.47231 L 250.88106,428.57364 L 251.98238,430.33575 L 252.64317,432.97892 L 251.98238,433.41945 L 252.42291,434.52077 L 252.20264,436.28289 L 253.30396,438.045 L 253.30396,443.33135 L 252.20264,443.99214 L 252.42291,446.19478 L 251.54185,447.07584 L 248.89868,447.07584 L 247.57709,448.17716 L 245.37445,449.71901 L 243.61233,450.60007 L 243.17181,453.02298 L 242.73128,453.90403 L 242.29075,455.88641 L 242.29075,456.32694 L 240.96916,456.32694 L 240.30837,455.00535 L 237.44493,453.90403 L 235.02203,451.48113 L 232.37885,451.0406 L 229.73568,448.61769 L 228.4141,447.2961 L 227.09251,448.61769 L 225.11013,448.39742 L 222.90749,446.63531 L 222.2467,440.24765 L 223.12775,438.92606 L 221.14537,440.02738 L 218.94273,437.82474 L 217.18062,436.06262 L 217.18062,433.63972 L 215.85903,431.43707 L 218.94273,428.7939 z"
       id="path3347" />
    <path
       style="fill:none;fill-rule:evenodd;stroke:#e80000;stroke-width:1.2;stroke-linecap:butt;stroke-linejoin:miter;stroke-opacity:1;stroke-miterlimit:4;stroke-dasharray:none"
       d="M 228.4141,448.61769 L 231.93833,450.60007 L 235.02203,452.14192 L 236.78414,453.02298 L 237.6652,457.208 L 241.18943,458.52958 L 242.51101,460.51196 L 243.61233,463.3754 L 245.81498,464.69698 L 246.47577,465.35778 L 246.69604,471.52518 L 243.39207,474.60888 L 242.95154,477.47231 L 244.71366,478.13311 L 244.49339,480.77628 L 245.59471,481.65734 L 245.37445,483.19919 L 244.49339,484.08024 L 244.05286,485.84236 L 242.51101,486.94368 L 240.96916,484.74104 L 238.54626,483.63972 L 237.88546,479.23443 L 239.42731,477.69258 L 239.20705,473.06703 L 238.54626,471.74544 L 238.54626,469.10227 L 237.6652,468.22121 L 238.54626,467.34016 L 237.22467,466.23883 L 237.44493,465.13751 L 238.32599,463.81593 L 237.00441,461.17276 L 236.78414,460.2917 L 235.02203,458.97011 L 235.02203,455.44588 L 234.80176,454.1243 L 228.63436,453.24324 L 228.4141,448.61769 z"
       id="path3349" />
    <path
       style="fill:none;fill-rule:evenodd;stroke:#0000f3;stroke-width:1.2;stroke-linecap:butt;stroke-linejoin:miter;stroke-opacity:1;stroke-miterlimit:4;stroke-dasharray:none"
       d="M 243.8326,486.72342 L 245.15419,482.97892 L 245.37445,481.21681 L 244.05286,480.11549 L 244.05286,477.91284 L 242.51101,476.81152 L 243.17181,474.60888 L 246.69604,470.64412 L 246.03524,465.13751 L 243.39207,462.71461 L 241.18943,458.30932 L 237.00441,456.98773 L 236.78414,453.90403 L 240.08811,455.00535 L 241.18943,456.5472 L 242.73128,456.10668 L 243.17181,453.02298 L 243.8326,451.0406 L 248.89868,447.51637 L 251.98238,447.2961 L 252.20264,445.31372 L 252.20264,443.99214 L 252.20264,443.99214 L 253.30396,442.89082 L 253.30396,438.045 L 251.98238,436.06262 L 251.98238,433.63972 L 252.20264,432.31813 L 249.55947,427.25205 L 241.62996,427.03179 L 243.8326,423.06703 L 245.15419,423.28729 L 249.55947,417.56042 L 249.55947,416.01857 L 253.0837,414.03619 L 253.30396,412.27408 L 258.81057,409.85117 L 262.77533,407.64853 C 262.77533,407.64853 266.51982,406.98773 265.63877,404.78509 C 264.75771,402.58245 266.0793,401.26086 266.0793,401.26086 L 266.0793,399.05822 L 269.163,398.61769 L 271.14537,399.93928 L 271.36564,402.58245 L 272.68722,405.88641 L 271.5859,407.86879 L 274.22907,411.17276 L 275.3304,414.25646 L 273.56828,416.01857 L 272.68722,416.01857 L 268.94273,420.64412 L 272.46696,423.28729 L 273.34802,424.38861 L 271.80617,425.93046 L 271.80617,430.99654 L 270.92511,433.41945 L 267.84141,435.40183 L 267.84141,438.045 L 268.94273,439.36659 L 266.29956,440.90844 L 266.51982,443.33135 L 266.74009,445.53399 L 265.85903,447.73663 L 265.19824,452.14192 L 262.99559,452.58245 L 261.45374,453.4635 L 260.57269,454.34456 L 260.35242,460.95249 L 261.45374,462.05381 L 261.45374,463.15513 L 260.35242,465.13751 L 259.03084,466.01857 L 259.69163,467.56042 L 258.37004,469.98333 L 260.57269,472.84676 L 261.01322,474.82914 L 261.67401,475.26967 L 260.35242,476.81152 L 260.35242,478.57364 L 257.92952,479.89522 L 257.92952,481.65734 L 256.82819,482.31813 L 256.38767,484.30051 L 255.06608,487.16394 L 249.55947,487.38421 L 243.8326,486.72342 z"
       id="path3353" />
    <path
       style="fill:none;fill-rule:evenodd;stroke:#00f200;stroke-width:1.2;stroke-linecap:butt;stroke-linejoin:miter;stroke-opacity:1;stroke-miterlimit:4;stroke-dasharray:none"
       d="M 255.66502,486.84494 L 257.14286,481.91883 L 258.12808,479.94839 L 260.59113,478.22425 L 260.09852,476.74642 L 261.82266,475.26859 L 260.34483,472.80553 L 258.12808,470.34248 L 259.35961,467.63312 L 259.1133,466.40159 L 260.59113,463.44593 L 260.83744,461.96809 L 259.60591,460.73657 L 260.83744,453.84002 L 263.30049,452.85479 L 265.27094,452.11588 L 265.51724,447.18977 L 266.99507,443.00258 L 271.42857,441.77105 L 275.61576,443.00258 L 276.35468,442.26366 L 279.80296,443.24888 L 280.78818,443.49519 L 284.23645,438.81538 L 287.43842,435.85972 L 287.43842,434.13558 L 291.62562,432.90405 L 293.34975,434.38189 L 294.82759,432.90405 L 298.02956,435.1208 L 299.26108,435.36711 L 300.24631,434.13558 L 304.92611,433.88928 L 306.15764,435.1208 L 307.88177,434.62819 L 308.867,434.62819 L 310.83744,435.85972 L 312.56158,435.1208 L 314.53202,435.85972 L 315.02463,437.83016 L 316.00985,439.308 L 315.02463,441.27844 L 315.76355,443.24888 L 318.47291,442.50997 L 319.21182,441.03213 L 321.67488,442.26366 L 322.6601,443.9878 L 324.13793,444.97302 L 324.13793,446.94346 L 324.13793,451.62327 L 323.15271,453.1011 L 323.64532,455.07154 L 321.67488,455.81046 L 320.44335,454.57893 L 319.70443,457.28829 L 320.68966,460.73657 L 319.21182,462.2144 L 319.45813,463.19962 L 317.24138,463.93854 L 317.9803,467.14051 L 318.71921,467.63312 L 317.9803,470.34248 L 316.50246,468.86465 L 313.7931,469.84987 L 313.05419,471.82031 L 310.83744,472.31292 L 309.1133,471.08139 L 307.88177,469.11095 L 306.15764,467.38681 C 306.15764,467.38681 304.92611,467.87942 304.4335,466.8942 C 303.94089,465.90898 300.98522,464.18484 300.98522,464.18484 L 299.26108,463.44593 L 298.52217,462.2144 L 292.85714,462.2144 L 292.36453,461.22918 L 291.37931,462.2144 L 289.90148,463.44593 L 286.4532,463.44593 L 285.46798,464.92376 L 284.72906,465.41637 L 283.00493,467.14051 L 283.49754,469.84987 L 284.23645,470.34248 L 282.26601,471.3277 L 282.0197,473.05184 L 280.29557,480.441 L 280.29557,481.42622 L 279.80296,481.67253 L 278.81773,484.38189 L 271.67488,484.38189 L 270.44335,483.39667 L 267.24138,484.38189 L 264.77833,485.1208 L 259.60591,485.36711 L 258.867,486.10602 L 255.66502,486.84494 z"
       id="path3355" />
    <path
       style="fill:none;fill-rule:evenodd;stroke:#e70000;stroke-width:1.2;stroke-linecap:butt;stroke-linejoin:miter;stroke-opacity:1;stroke-miterlimit:4;stroke-dasharray:none"
       d="M 317.48768,478.96317 L 321.42857,479.94839 L 323.64532,482.41144 L 325.86207,483.39667 L 327.3399,481.91883 L 327.83251,480.68731 L 329.31034,478.47056 L 330.78818,479.45578 L 331.52709,478.71686 L 334.97537,482.16514 L 338.42365,485.1208 L 338.42365,487.33755 L 336.94581,489.5543 L 338.17734,491.03213 L 338.91626,492.26366 L 337.19212,493.74149 L 339.16256,495.46563 L 338.91626,500.14543 L 338.42365,502.11588 L 337.68473,503.1011 L 338.42365,504.33263 L 337.43842,504.33263 L 335.46798,503.3474 L 333.99015,505.07154 L 332.0197,506.05676 L 328.57143,506.05676 L 328.32512,506.79568 L 323.89163,507.28829 L 322.41379,505.81046 L 321.67488,504.82524 L 323.89163,501.13066 L 320.19704,500.39174 L 319.21182,499.40652 L 314.53202,500.39174 L 313.7931,499.16021 L 314.53202,496.69716 L 312.80788,495.46563 L 313.5468,493.9878 L 315.76355,493.74149 L 315.76355,491.27844 L 317.73399,489.308 L 316.25616,487.58386 L 314.03941,485.85972 L 314.03941,484.38189 L 315.51724,483.15036 L 314.28571,482.16514 L 314.28571,480.93361 L 316.50246,480.19469 L 317.48768,478.96317 z"
       id="path3357" />
    <path
       style="fill:none;fill-rule:evenodd;stroke:#0000f6;stroke-width:1.2;stroke-linecap:butt;stroke-linejoin:miter;stroke-opacity:1;stroke-miterlimit:4;stroke-dasharray:none"
       d="M 312.80788,472.55923 L 315.27094,474.77598 L 316.74877,476.50011 L 317.9803,478.47056 L 316.25616,480.19469 L 314.28571,480.441 L 314.28571,482.16514 L 315.51724,482.90405 L 314.53202,484.13558 L 313.7931,485.85972 L 317.24138,488.07647 L 317.9803,488.56908 L 316.25616,490.53952 L 315.76355,493.49519 L 313.5468,493.74149 L 312.56158,495.21933 L 314.53202,496.69716 L 313.05419,495.71194 L 312.31527,496.94346 L 311.57635,499.16021 L 310.83744,499.40652 L 311.08374,500.88435 L 311.08374,502.85479 L 309.60591,504.08632 L 309.35961,505.81046 L 308.62069,506.79568 L 305.66502,506.30307 L 303.69458,504.82524 L 300,506.54937 L 298.52217,507.04199 L 299.26108,509.25873 L 298.76847,510.73657 L 296.55172,511.47548 L 294.58128,512.4607 L 294.08867,514.18484 L 291.37931,515.17006 L 289.16256,515.17006 L 286.2069,514.43115 L 278.81773,514.43115 L 279.31034,511.96809 L 278.07882,511.22918 L 280.04926,510.49026 L 280.29557,506.05676 L 279.55665,504.82524 L 278.07882,503.1011 L 277.58621,502.11588 L 276.60099,502.36218 L 276.35468,500.88435 L 274.63054,500.39174 L 274.63054,492.75627 L 275.86207,491.27844 L 276.60099,489.80061 L 277.58621,487.83016 L 278.32512,487.83016 L 278.07882,483.88928 L 280.78818,478.96317 C 280.78818,478.96317 281.28079,474.52967 281.52709,473.05184 C 281.7734,471.57401 283.74384,469.84987 283.74384,469.84987 L 283.00493,468.12573 L 282.75862,467.14051 L 286.69951,463.44593 L 289.40887,463.44593 L 292.36453,461.47548 L 293.10345,462.2144 L 298.02956,462.2144 L 300.49261,464.43115 L 304.4335,466.6479 L 307.63547,468.86465 L 309.35961,470.83509 L 311.08374,472.31292 L 312.80788,472.55923 z"
       id="path3359" />
    <path
       style="fill:none;fill-rule:evenodd;stroke:#0000e4;stroke-width:1.2;stroke-linecap:butt;stroke-linejoin:miter;stroke-opacity:1;stroke-miterlimit:4;stroke-dasharray:none"
       d="M 338.66995,484.8745 L 341.62562,486.35233 L 342.85714,484.38189 L 345.07389,484.13558 L 345.5665,481.91883 L 348.52217,480.441 L 351.47783,479.20947 L 352.70936,477.97795 L 353.69458,479.20947 L 355.17241,477.97795 L 355.66502,475.02228 L 356.65025,470.58878 L 356.65025,464.18484 L 360.34483,464.92376 L 361.57635,466.15529 L 362.06897,468.12573 L 364.28571,468.86465 L 365.27094,470.83509 L 366.00985,472.31292 L 368.71921,473.29814 L 369.70443,474.28336 L 368.2266,475.7612 L 369.21182,476.74642 L 369.95074,478.71686 L 370.93596,478.71686 L 372.16749,476.25381 L 372.6601,474.52967 L 374.13793,474.52967 L 374.13793,471.08139 L 375.12315,470.34248 L 375.61576,466.6479 L 374.87685,464.67745 L 378.07882,465.90898 L 379.55665,464.18484 L 382.26601,466.8942 L 384.97537,467.87942 L 386.2069,466.6479 L 388.91626,465.90898 L 391.133,464.67745 L 392.11823,466.15529 L 392.61084,469.35726 L 394.58128,470.09617 L 396.30542,472.06662 L 397.29064,472.55923 L 397.78325,474.77598 L 399.75369,476.0075 L 401.47783,477.97795 L 401.72414,483.64297 L 403.44828,486.10602 L 405.66502,488.32277 L 403.94089,489.308 L 404.4335,493.49519 L 403.69458,493.74149 L 403.20197,494.72671 L 405.41872,496.20455 L 405.41872,496.94346 L 402.21675,497.18977 L 401.97044,498.17499 L 401.23153,499.89913 L 400.73892,501.37696 L 400.98522,504.08632 L 402.21675,506.54937 L 403.44828,509.50504 L 403.44828,511.96809 L 404.18719,513.93854 L 404.18719,515.66268 L 406.15764,518.86465 L 406.89655,521.08139 L 406.15764,524.03706 L 405.66502,525.51489 L 404.92611,526.25381 L 404.92611,527.97795 L 406.65025,529.45578 L 408.12808,528.96317 L 411.08374,530.19469 L 410.59113,531.91883 L 410.59113,532.65775 C 410.59113,532.65775 409.85222,532.90405 409.1133,534.13558 C 408.37438,535.36711 406.65025,534.38189 406.65025,534.38189 L 404.4335,535.61341 L 400.98522,537.09125 L 400.98522,538.81538 L 398.76847,537.33755 L 397.29064,538.56908 L 394.82759,536.10602 L 394.33498,534.8745 L 391.87192,534.38189 L 390.8867,532.90405 L 389.16256,533.15036 L 389.65517,535.1208 L 388.91626,537.09125 L 390.8867,538.81538 L 392.11823,540.29322 L 389.65517,542.50997 C 389.65517,542.50997 386.94581,544.2341 386.4532,543.24888 C 385.96059,542.26366 385.22167,543.00258 385.22167,543.00258 L 383.74384,543.00258 L 382.51232,542.01736 L 379.55665,544.2341 L 378.57143,546.69716 L 377.58621,548.4213 L 376.35468,548.4213 L 372.6601,546.45085 L 372.6601,544.72671 L 375.86207,541.27844 L 375.36946,540.29322 C 375.36946,540.29322 374.63054,540.04691 374.38424,538.81538 C 374.13793,537.58386 373.39901,536.59864 373.39901,536.59864 L 373.89163,533.88928 L 373.89163,531.42622 L 371.42857,530.19469 L 369.21182,531.42622 L 369.21182,533.15036 L 367.73399,533.64297 L 366.50246,535.61341 L 365.27094,536.10602 L 365.02463,537.58386 L 363.5468,538.32277 L 359.1133,535.1208 L 358.867,531.91883 L 356.40394,532.41144 L 355.66502,531.17992 L 353.44828,529.45578 L 350.49261,531.17992 L 349.75369,531.17992 L 349.26108,533.15036 L 345.81281,533.39667 L 342.61084,531.91883 L 342.11823,531.42622 L 339.16256,532.16514 L 336.4532,532.90405 L 335.46798,530.441 L 333.25123,528.71686 L 329.31034,527.97795 L 329.31034,525.51489 L 328.57143,523.54445 L 329.80296,519.84987 L 326.35468,518.86465 L 323.64532,516.8942 L 323.64532,515.41637 L 324.87685,514.18484 L 324.13793,511.47548 L 324.13793,507.5346 L 329.06404,506.54937 L 332.75862,505.56415 L 335.71429,503.3474 C 335.71429,503.3474 337.19212,505.31785 338.17734,504.08632 C 339.16256,502.85479 338.91626,496.94346 338.91626,496.94346 L 337.68473,493.00258 L 338.66995,491.77105 L 336.69951,489.5543 L 338.66995,484.8745 z"
       id="path3361" />
  </g>
</svg>
